<?xml version="1.0" encoding="UTF-8" standalone="no"?>
<svg width="36px" height="36px" viewBox="0 0 36 36" version="1.1" xmlns="http://www.w3.org/2000/svg" xmlns:xlink="http://www.w3.org/1999/xlink" xmlns:sketch="http://www.bohemiancoding.com/sketch/ns">
    <!-- Generator: Sketch 3.4.4 (17249) - http://www.bohemiancoding.com/sketch -->
    <title>code</title>
    <desc>Created with Sketch.</desc>
    <defs></defs>
    <g id="-Assets" stroke="none" stroke-width="1" fill="none" fill-rule="evenodd" sketch:type="MSPage">
        <g id="Desktop-HD" sketch:type="MSArtboardGroup" transform="translate(-419.000000, -784.000000)">
            <g id="CATEGORY-ICONS" sketch:type="MSLayerGroup" transform="translate(206.000000, 711.000000)">
                <g id="code" transform="translate(213.000000, 73.000000)" sketch:type="MSShapeGroup">
                    <g id="Oval-175-+-Icon/Code">
                        <circle id="Oval-175" fill="#4CC1BE" cx="18" cy="18" r="18"></circle>
                        <g id="Icon/Code" transform="translate(6.000000, 9.000000)" fill="#FFFFFF">
                            <path d="M0,9.31292319 C0,9.21938426 0.04799952,9.11025715 0.144,8.98553858 L6.144,3.18615396 C6.24000048,3.06143539 6.34399944,2.99907704 6.456,2.99907704 C6.56800056,2.99907704 6.68799936,3.06143539 6.816,3.18615396 L7.44,3.79415396 C7.56800064,3.91887254 7.632,4.02799965 7.632,4.12153858 L7.296,4.44892319 L2.304,9.31292319 L7.296,14.1769232 C7.39200048,14.3016418 7.44,14.4107689 7.44,14.5043078 C7.44,14.5978467 7.39200048,14.7069739 7.296,14.8316924 L6.624,15.4396924 C6.52799952,15.564411 6.42400056,15.6267693 6.312,15.6267693 C6.19999944,15.6267693 6.09600048,15.564411 6,15.4396924 L0,9.64030781 L0,9.31292319 Z M8.496,17.1233847 L13.344,1.03476935 C13.344,0.972410062 13.4079994,0.878872535 13.536,0.754153963 C13.6000003,0.691794677 13.6959994,0.691794677 13.824,0.754153963 L14.64,1.03476935 C14.7040003,1.03476935 14.7999994,1.08153811 14.928,1.17507704 C14.9920003,1.23743633 14.9920003,1.34656344 14.928,1.50246166 L10.08,17.591077 C10.08,17.6534363 10.0160006,17.7469739 9.888,17.8716924 C9.82399968,17.9340517 9.72800064,17.9340517 9.6,17.8716924 L8.784,17.591077 C8.71999968,17.591077 8.62400064,17.5443083 8.496,17.4507693 L8.496,17.1233847 Z M15.984,14.5043078 C15.984,14.4107689 16.0319995,14.3016418 16.128,14.1769232 L21.12,9.31292319 L16.128,4.44892319 C16.0319995,4.32420462 15.984,4.21507751 15.984,4.12153858 C15.984,4.02799965 16.0319995,3.91887254 16.128,3.79415396 L16.8,3.18615396 C16.8960005,3.06143539 16.9999994,2.99907704 17.112,2.99907704 C17.2240006,2.99907704 17.3279995,3.06143539 17.424,3.18615396 L23.424,8.98553858 C23.5200005,9.11025715 23.568,9.21938426 23.568,9.31292319 C23.568,9.40646212 23.5200005,9.51558924 23.424,9.64030781 L17.424,15.4396924 C17.3279995,15.564411 17.2240006,15.6267693 17.112,15.6267693 C16.9999994,15.6267693 16.8960005,15.564411 16.8,15.4396924 L16.128,14.8316924 C16.0319995,14.7069739 15.984,14.5978467 15.984,14.5043078 L15.984,14.5043078 Z"></path>
                        </g>
                    </g>
                </g>
            </g>
        </g>
    </g>
</svg>